<svg xmlns="http://www.w3.org/2000/svg" viewBox="0 0 822.3 180">
    <title>horizontal_left_small_black</title>
    <defs><style>.cls-1{fill:#d1d12e;}</style></defs>
    <g id="レイヤー_2" data-name="レイヤー 2"><g id="レイヤー_1-2" data-name="レイヤー 1">
    <path class="cls-1" d="M731.76,180,0,180c11.68-1.49,29.07-3.73,50.11-6.5,110.39-14.54,280.14-36.89,395.83-58.9C536.56,97.3,669.8,56.47,822.3,0Z"/>
    <path d="M181.2,146.93H85.65L118.14,70H85.65V33.07h96.82L151.1,110.14h30.1Z"/>
    <path d="M241.23,151.23c-53.66,0-53.66-36.47-53.66-57.81V82c0-21.5,0-53.19,53.66-53.19s53.67,33.92,53.67,58v6.68C294.9,117.47,294.9,151.23,241.23,151.23Zm-5.89-47.93c0,8.44,0,12.9,5.89,12.9s5.9-4.46,5.9-12.9V76.7c0-8.28,0-12.89-5.9-12.89s-5.89,4.61-5.89,12.89Z"/>
    <path d="M352.39,105.84V135.3l.15,11.63H304.46l.15-11.63V44.7l-.15-11.63h82V68.58H352.39V76.7h31.05v29.14Z"/>
    <path d="M501,33.07,500.8,44.7v64.17c0,25.16-17,42.36-52.07,42.36-36.15,0-53.66-17.2-53.66-42.36V44.7l-.16-11.63H443l-.16,11.63v56.84c0,6.69,1.59,9.88,5.89,9.88,4.46,0,5.89-3.51,5.89-9.88V44.7l-.16-11.63Z"/>
    <path d="M623.74,33.07l-22,52.23,27.07,61.63h-53l-15.13-37.42h-.79V135.3l.15,11.63H512l.16-11.63V44.7L512,33.07H560l-.15,11.63V69.54h.79l14.17-36.47Z"/>
    <path d="M736.65,33.07l-.16,11.63v64.17c0,25.16-17,42.36-52.07,42.36-36.15,0-53.67-17.2-53.67-42.36V44.7l-.16-11.63h48.09l-.15,11.63v56.84c0,6.69,1.59,9.88,5.89,9.88,4.46,0,5.89-3.51,5.89-9.88V44.7l-.16-11.63Z"/>
    </g></g>
</svg>